<mxfile host="app.diagrams.net" agent="Mozilla/5.0 (Windows NT 10.0; Win64; x64) AppleWebKit/537.36 (KHTML, like Gecko) Chrome/131.0.0.0 Safari/537.36" version="24.9.1">
  <diagram name="第 1 页" id="JOnwjQAw6FctpHRn7n33">
    <mxGraphModel dx="2074" dy="1132" grid="1" gridSize="10" guides="1" tooltips="1" connect="1" arrows="1" fold="1" page="1" pageScale="1" pageWidth="850" pageHeight="1100" math="0" shadow="0">
      <root>
        <mxCell id="0" />
        <mxCell id="1" parent="0" />
        <mxCell id="3w2RXyKYQ_ACeo4qv3Gf-1" value="支付公司" style="rounded=0;whiteSpace=wrap;html=1;fontSize=18;fontStyle=1" vertex="1" parent="1">
          <mxGeometry x="340" y="230" width="120" height="60" as="geometry" />
        </mxCell>
        <mxCell id="3w2RXyKYQ_ACeo4qv3Gf-2" value="技术部" style="rounded=0;whiteSpace=wrap;html=1;fontSize=18;fontStyle=1" vertex="1" parent="1">
          <mxGeometry x="340" y="330" width="120" height="60" as="geometry" />
        </mxCell>
        <mxCell id="3w2RXyKYQ_ACeo4qv3Gf-3" value="安全运营" style="rounded=0;whiteSpace=wrap;html=1;fontSize=18;fontStyle=1" vertex="1" parent="1">
          <mxGeometry x="250" y="570" width="120" height="60" as="geometry" />
        </mxCell>
        <mxCell id="3w2RXyKYQ_ACeo4qv3Gf-4" value="安全开发" style="rounded=0;whiteSpace=wrap;html=1;fontSize=18;fontStyle=1" vertex="1" parent="1">
          <mxGeometry x="425" y="570" width="120" height="60" as="geometry" />
        </mxCell>
        <mxCell id="3w2RXyKYQ_ACeo4qv3Gf-5" value="" style="endArrow=none;html=1;rounded=0;entryX=0.5;entryY=1;entryDx=0;entryDy=0;exitX=0.5;exitY=0;exitDx=0;exitDy=0;" edge="1" parent="1" source="3w2RXyKYQ_ACeo4qv3Gf-2" target="3w2RXyKYQ_ACeo4qv3Gf-1">
          <mxGeometry width="50" height="50" relative="1" as="geometry">
            <mxPoint x="400" y="500" as="sourcePoint" />
            <mxPoint x="450" y="450" as="targetPoint" />
          </mxGeometry>
        </mxCell>
        <mxCell id="3w2RXyKYQ_ACeo4qv3Gf-8" value="信息安全风控中心" style="rounded=0;whiteSpace=wrap;html=1;fontSize=18;fontStyle=1" vertex="1" parent="1">
          <mxGeometry x="315" y="440" width="170" height="60" as="geometry" />
        </mxCell>
        <mxCell id="3w2RXyKYQ_ACeo4qv3Gf-9" value="" style="endArrow=none;html=1;rounded=0;entryX=0.5;entryY=1;entryDx=0;entryDy=0;exitX=0.5;exitY=0;exitDx=0;exitDy=0;" edge="1" parent="1" source="3w2RXyKYQ_ACeo4qv3Gf-8" target="3w2RXyKYQ_ACeo4qv3Gf-2">
          <mxGeometry width="50" height="50" relative="1" as="geometry">
            <mxPoint x="410" y="340" as="sourcePoint" />
            <mxPoint x="410" y="290" as="targetPoint" />
          </mxGeometry>
        </mxCell>
        <mxCell id="3w2RXyKYQ_ACeo4qv3Gf-10" value="" style="endArrow=none;html=1;rounded=0;entryX=0.5;entryY=1;entryDx=0;entryDy=0;exitX=0.5;exitY=0;exitDx=0;exitDy=0;" edge="1" parent="1" source="3w2RXyKYQ_ACeo4qv3Gf-3" target="3w2RXyKYQ_ACeo4qv3Gf-8">
          <mxGeometry width="50" height="50" relative="1" as="geometry">
            <mxPoint x="410" y="450" as="sourcePoint" />
            <mxPoint x="410" y="400" as="targetPoint" />
          </mxGeometry>
        </mxCell>
        <mxCell id="3w2RXyKYQ_ACeo4qv3Gf-11" value="" style="endArrow=none;html=1;rounded=0;entryX=0.5;entryY=1;entryDx=0;entryDy=0;exitX=0.5;exitY=0;exitDx=0;exitDy=0;" edge="1" parent="1" source="3w2RXyKYQ_ACeo4qv3Gf-4" target="3w2RXyKYQ_ACeo4qv3Gf-8">
          <mxGeometry width="50" height="50" relative="1" as="geometry">
            <mxPoint x="320" y="580" as="sourcePoint" />
            <mxPoint x="410" y="510" as="targetPoint" />
          </mxGeometry>
        </mxCell>
        <mxCell id="3w2RXyKYQ_ACeo4qv3Gf-12" value="&lt;h1 style=&quot;margin-top: 0px;&quot;&gt;负责网络信息安全工作&lt;/h1&gt;&lt;p&gt;中心共有自有人员13人，外包2人&lt;/p&gt;" style="text;html=1;whiteSpace=wrap;overflow=hidden;rounded=0;" vertex="1" parent="1">
          <mxGeometry x="520" y="440" width="250" height="120" as="geometry" />
        </mxCell>
        <mxCell id="3w2RXyKYQ_ACeo4qv3Gf-13" value="&lt;h1 style=&quot;margin-top: 0px;&quot;&gt;负责安全运营工作&lt;/h1&gt;&lt;p&gt;自有人员9人，外包2人。主要负责SOC安全运营，安全合规检测，安全相关基础设施建设等&lt;/p&gt;" style="text;html=1;whiteSpace=wrap;overflow=hidden;rounded=0;" vertex="1" parent="1">
          <mxGeometry x="130" y="650" width="250" height="120" as="geometry" />
        </mxCell>
        <mxCell id="3w2RXyKYQ_ACeo4qv3Gf-14" value="&lt;h1 style=&quot;margin-top: 0px;&quot;&gt;负责安全系统开发工作&lt;/h1&gt;&lt;p&gt;自有人员4人。主要负责数据加密系统、密钥系统、签名验签系统、安全日志告警系统、业务风控系统、设备指纹系统等系统的研发工作&lt;/p&gt;" style="text;html=1;whiteSpace=wrap;overflow=hidden;rounded=0;" vertex="1" parent="1">
          <mxGeometry x="440" y="640" width="250" height="120" as="geometry" />
        </mxCell>
      </root>
    </mxGraphModel>
  </diagram>
</mxfile>
